<svg width="13" height="13" viewBox="0 0 13 13" fill="none" xmlns="http://www.w3.org/2000/svg">
<path d="M5.2439 5.75C5.64233 5.75 5.9939 5.42188 5.9939 5C5.9939 4.60156 5.64233 4.25 5.2439 4.25C4.82202 4.25 4.4939 4.60156 4.4939 5C4.4939 5.42188 4.82202 5.75 5.2439 5.75ZM12.7439 6.5C12.7439 5.65625 12.2986 4.90625 11.6423 4.48438C11.8064 3.71094 11.572 2.86719 10.9861 2.25781C10.3767 1.67188 9.53296 1.4375 8.75952 1.60156C8.33765 0.945312 7.58765 0.5 6.7439 0.5C5.87671 0.5 5.12671 0.945312 4.70483 1.60156C3.9314 1.4375 3.08765 1.67188 2.50171 2.25781C1.89233 2.86719 1.65796 3.71094 1.82202 4.48438C1.16577 4.90625 0.743896 5.65625 0.743896 6.5C0.743896 7.36719 1.16577 8.11719 1.82202 8.53906C1.65796 9.3125 1.89233 10.1562 2.50171 10.7422C3.08765 11.3516 3.9314 11.5859 4.70483 11.4219C5.12671 12.0781 5.87671 12.5 6.7439 12.5C7.58765 12.5 8.33765 12.0781 8.75952 11.4219C9.53296 11.5859 10.3767 11.3516 10.9861 10.7422C11.572 10.1562 11.8064 9.3125 11.6423 8.53906C12.2986 8.11719 12.7439 7.36719 12.7439 6.5ZM10.1892 7.95312C10.4001 8.42188 10.9158 9.24219 10.1892 9.96875C9.53296 10.625 8.87671 10.2969 8.17358 9.96875C7.98608 10.4609 7.75171 11.375 6.7439 11.375C5.66577 11.375 5.45483 10.3906 5.29077 9.96875C4.79858 10.2031 4.00171 10.6719 3.27515 9.94531C2.52515 9.19531 3.08765 8.35156 3.27515 7.95312C2.78296 7.76562 1.8689 7.53125 1.8689 6.5C1.8689 5.44531 2.85327 5.23438 3.27515 5.07031C3.06421 4.60156 2.57202 3.78125 3.29858 3.05469C4.04858 2.30469 4.89233 2.86719 5.29077 3.05469C5.47827 2.5625 5.71265 1.625 6.7439 1.625C7.79858 1.625 8.00952 2.63281 8.17358 3.05469C8.64233 2.84375 9.46265 2.35156 10.1892 3.07812C10.9392 3.82812 10.3767 4.67188 10.1892 5.07031C10.6814 5.25781 11.5955 5.49219 11.5955 6.52344C11.5955 7.57812 10.6111 7.78906 10.1892 7.95312ZM8.2439 7.25C7.82202 7.25 7.4939 7.60156 7.4939 8C7.4939 8.42188 7.82202 8.75 8.2439 8.75C8.64233 8.75 8.9939 8.42188 8.9939 8C8.9939 7.60156 8.64233 7.25 8.2439 7.25ZM8.64233 4.625C8.40796 4.39062 8.0564 4.39062 7.84546 4.625L4.84546 7.625C4.61108 7.83594 4.61108 8.1875 4.84546 8.39844C4.93921 8.51562 5.10327 8.5625 5.2439 8.5625C5.38452 8.5625 5.52515 8.51562 5.64233 8.39844L8.64233 5.39844C8.85327 5.1875 8.85327 4.83594 8.64233 4.625Z" fill="#A8A8A8"/>
</svg>
