<svg width="147" height="60" viewBox="0 0 147 60" fill="none" xmlns="http://www.w3.org/2000/svg">
<g filter="url(#filter0_d_1123_12001)">
<path d="M20.0066 14.8522H21.1647V15.9517H21.1942C21.7454 15.1115 22.582 14.6782 23.6089 14.6782C24.5209 14.6782 25.3608 15.0393 25.6627 15.9517C26.1679 15.1541 27.0504 14.6782 28.0051 14.6782C29.4946 14.6782 30.492 15.3018 30.492 16.8477V22.3322H29.2617V17.4254C29.2617 16.4998 29.0156 15.7613 27.8149 15.7613C26.6141 15.7613 25.8628 16.5129 25.8628 17.6715V22.3322H24.6325V17.4254C24.6325 16.4572 24.3274 15.7613 23.2283 15.7613C21.7683 15.7613 21.2303 17.107 21.2303 17.6715V22.3322H20V14.8489L20.0066 14.8522Z" fill="#0044CC"/>
<path d="M38.7007 22.3061C38.4841 22.4374 38.2086 22.5096 37.8181 22.5096C37.1817 22.5096 36.7781 22.1617 36.7781 21.351C36.099 22.1485 35.1869 22.5096 34.1436 22.5096C32.7821 22.5096 31.6699 21.9024 31.6699 20.4123C31.6699 18.7187 32.9297 18.3577 34.2027 18.1115C35.5642 17.8522 36.7191 17.9375 36.7191 17.012C36.7191 15.942 35.8365 15.768 35.0557 15.768C34.0157 15.768 33.248 16.0864 33.1889 17.1859H31.9586C32.0308 15.3348 33.4645 14.6816 35.1279 14.6816C36.473 14.6816 37.9363 14.9869 37.9363 16.7363V20.5862C37.9363 21.1639 37.9363 21.4265 38.3267 21.4265C38.4284 21.4265 38.5432 21.4133 38.704 21.3543V22.3094L38.7007 22.3061ZM36.7027 18.4692C36.2237 18.8172 35.2985 18.8303 34.475 18.9747C33.6646 19.1191 32.9691 19.4079 32.9691 20.3204C32.9691 21.1311 33.6647 21.4199 34.416 21.4199C36.0367 21.4199 36.7027 20.4057 36.7027 19.7263V18.466V18.4692Z" fill="#0044CC"/>
<path d="M39.5667 14.8522H40.7248V16.0403H40.7543C41.2759 15.1148 42.1158 14.6782 43.1854 14.6782C45.1538 14.6782 45.7608 15.8073 45.7608 17.4123V22.3322H44.5305V17.2678C44.5305 16.3554 43.9531 15.7613 43.0115 15.7613C41.522 15.7613 40.7969 16.7591 40.7969 18.1048V22.3322H39.5667V14.8489V14.8522Z" fill="#0044CC"/>
<path d="M48.638 13.5065H47.4072V12H48.638V13.5065ZM47.4072 14.8522H48.638V22.3355H47.4072V14.8522Z" fill="#0044CC"/>
<path d="M50.3176 14.8522H51.5479V15.8664H51.5775C51.981 15.0425 52.939 14.6782 53.9659 14.6782C56.2657 14.6782 57.4107 16.5031 57.4107 18.6135C57.4107 20.7239 56.2821 22.5062 53.9954 22.5062C53.2277 22.5062 52.1286 22.2173 51.5807 21.3344H51.5512V25.1975H50.3209V14.8489L50.3176 14.8522ZM53.7887 15.7646C52.1385 15.7646 51.502 17.1825 51.502 18.5873C51.502 20.0642 52.168 21.423 53.8609 21.423C55.5538 21.423 56.1017 19.9887 56.1017 18.5282C56.1017 17.0676 55.3766 15.7646 53.7854 15.7646H53.7887Z" fill="#0044CC"/>
<path d="M65.2026 22.3061C64.9861 22.4374 64.7105 22.5096 64.3201 22.5096C63.6836 22.5096 63.2801 22.1617 63.2801 21.351C62.6009 22.1485 61.6889 22.5096 60.6456 22.5096C59.2873 22.5096 58.1719 21.9024 58.1719 20.4123C58.1719 18.7187 59.4317 18.3577 60.7047 18.1115C62.0662 17.8522 63.221 17.9375 63.221 17.012C63.221 15.942 62.3385 15.768 61.5577 15.768C60.5176 15.768 59.7499 16.0864 59.6909 17.1859H58.4606C58.5328 15.3348 59.9665 14.6816 61.6298 14.6816C62.975 14.6816 64.4349 14.9869 64.4349 16.7363V20.5862C64.4349 21.1639 64.4349 21.4265 64.8253 21.4265C64.927 21.4265 65.0419 21.4133 65.2026 21.3543V22.3094V22.3061ZM63.2046 18.4692C62.7256 18.8172 61.8004 18.8303 60.977 18.9747C60.1666 19.1191 59.4711 19.4079 59.4711 20.3204C59.4711 21.1311 60.1666 21.4199 60.9179 21.4199C62.5386 21.4199 63.2046 20.4057 63.2046 19.7263V18.466V18.4692Z" fill="#0044CC"/>
<path d="M66.1448 12.0029H67.3756V22.3384H66.1448V12.0029Z" fill="#0044CC"/>
<path d="M123.939 38.9234L126.242 40.9879C126.242 40.9879 124.647 43.7449 120.087 43.7449C120.087 43.7449 113.325 43.8302 112.607 37.4005C112.607 37.4005 111.531 29.1689 119.198 28.3188C119.198 28.3188 123.998 27.728 126.147 32.044C126.147 32.044 127.088 33.9149 126.993 37.4202H115.241V34.8273H123.194C123.194 34.8273 123 31.555 119.779 31.6141C119.779 31.6141 116.399 31.2629 116.442 36.2583C116.442 36.2583 116.308 40.4398 120.061 40.4595C120.061 40.4595 122.459 40.791 123.942 38.9201" fill="#0044CC"/>
<path d="M24.2324 28.5225H20.0034V43.6663H24.2324V28.5225Z" fill="#0044CC"/>
<path d="M33.6185 30.7607H29.3928V43.6695H33.6185V30.7607Z" fill="#0044CC"/>
<path d="M42.9528 33.4619H38.7239V43.6694H42.9528V33.4619Z" fill="#0044CC"/>
<path d="M75.8254 22.9326H71.6851V43.666H75.8254V22.9326Z" fill="#0044CC"/>
<path d="M23.7733 31.0695C23.7733 31.0695 25.2398 28.3387 28.829 28.3387C28.829 28.3387 31.762 28.2107 32.9267 30.7478C32.9267 30.7478 34.2981 28.3223 37.8381 28.3223C37.8381 28.3223 42.8643 27.8497 42.9496 33.4622V37.6239H38.7141V34.6733C38.7141 34.6733 38.783 32.169 36.178 32.169C36.178 32.169 33.619 32.041 33.619 34.6569H29.3999C29.3999 34.6569 29.4228 32.0312 26.6014 32.192C26.6014 32.192 24.3868 32.169 24.2261 34.6503L23.77 31.0695H23.7733Z" fill="#0044CC"/>
<path d="M55.7212 38.9234L58.0243 40.9879C58.0243 40.9879 56.4299 43.7449 51.8696 43.7449C51.8696 43.7449 45.1078 43.8302 44.3893 37.4005C44.3893 37.4005 43.3132 29.1689 50.9805 28.3188C50.9805 28.3188 55.7803 27.728 57.9292 32.044C57.9292 32.044 58.8708 33.9149 58.7724 37.4202H47.0205V34.8273H54.9732C54.9732 34.8273 54.7796 31.555 51.5579 31.6141C51.5579 31.6141 48.1787 31.2629 48.2213 36.2583C48.2213 36.2583 48.0868 40.4398 51.8368 40.4595C51.8368 40.4595 54.235 40.791 55.7179 38.9201" fill="#0044CC"/>
<path d="M60.1693 36.3633C60.1693 36.3633 59.8314 28.578 66.5833 28.3318C66.5833 28.3318 70.0839 27.9872 71.9802 31.0691L71.7636 35.9628L71.6849 35.9858C71.6849 35.9858 71.5799 31.5221 67.7184 31.8339C67.7184 31.8339 64.3425 32.0735 64.372 36.081C64.372 36.081 64.4376 39.99 67.6626 40.1443C67.6626 40.1443 71.3011 40.4791 71.6849 36.3173L71.7899 41.1486C71.7899 41.1486 70.4152 43.7547 66.8818 43.7547C66.8818 43.7547 60.5367 43.8564 60.166 36.3665" fill="#0044CC"/>
<path d="M109.956 38.6182L112.341 41.0043C112.341 41.0043 110.297 43.9582 105.993 43.7252C105.993 43.7252 99.1755 43.6563 98.6703 36.5012C98.6703 36.5012 98.2011 29.2772 105.589 28.3352C105.589 28.3352 110.091 27.7641 112.138 30.8231L109.753 33.4455C109.753 33.4455 108.276 31.6633 105.79 31.9685C105.79 31.9685 102.364 32.3033 102.801 36.5734C102.801 36.5734 102.935 39.6324 106.026 40.1345C106.026 40.1345 108.142 40.7089 109.956 38.6215" fill="#0044CC"/>
<path d="M94.5039 43.6663H99.0839L91.3872 23.5303H86.8761L84.0349 31.135H88.2639L89.0972 28.6603L94.5039 43.6663Z" fill="#0044CC"/>
<path d="M89.1229 39.3962H76.6985L78.2798 35.6611H90.7009L89.1229 39.3962Z" fill="#F05330"/>
<path d="M83.6179 43.6698L87.9059 32.1855L83.6409 32.1888L79.3496 43.6731L83.6179 43.6698Z" fill="#F05330"/>
</g>
<defs>
<filter id="filter0_d_1123_12001" x="-8" y="0" width="163" height="71.7549" filterUnits="userSpaceOnUse" color-interpolation-filters="sRGB">
<feFlood flood-opacity="0" result="BackgroundImageFix"/>
<feColorMatrix in="SourceAlpha" type="matrix" values="0 0 0 0 0 0 0 0 0 0 0 0 0 0 0 0 0 0 127 0" result="hardAlpha"/>
<feMorphology radius="4" operator="erode" in="SourceAlpha" result="effect1_dropShadow_1123_12001"/>
<feOffset dy="8"/>
<feGaussianBlur stdDeviation="6"/>
<feComposite in2="hardAlpha" operator="out"/>
<feColorMatrix type="matrix" values="0 0 0 0 0.721569 0 0 0 0 0.721569 0 0 0 0 0.823529 0 0 0 0.2 0"/>
<feBlend mode="normal" in2="BackgroundImageFix" result="effect1_dropShadow_1123_12001"/>
<feBlend mode="normal" in="SourceGraphic" in2="effect1_dropShadow_1123_12001" result="shape"/>
</filter>
</defs>
</svg>
