<svg width="12" height="13" viewBox="0 0 12 13" fill="none" xmlns="http://www.w3.org/2000/svg">
<path d="M5.7439 0.875C2.62671 0.875 0.118896 3.40625 0.118896 6.5C0.118896 9.61719 2.62671 12.125 5.7439 12.125C8.83765 12.125 11.3689 9.61719 11.3689 6.5C11.3689 3.40625 8.83765 0.875 5.7439 0.875ZM5.7439 11C3.25952 11 1.2439 8.98438 1.2439 6.5C1.2439 4.03906 3.25952 2 5.7439 2C8.20483 2 10.2439 4.03906 10.2439 6.5C10.2439 8.98438 8.20483 11 5.7439 11ZM6.3064 6.59375V4.0625C6.3064 3.75781 6.04858 3.5 5.7439 3.5C5.41577 3.5 5.1814 3.75781 5.1814 4.0625V6.875C5.1814 7.0625 5.25171 7.22656 5.39233 7.34375L6.89233 8.46875C6.98608 8.53906 7.10327 8.5625 7.22046 8.5625C7.40796 8.5625 7.57202 8.49219 7.68921 8.35156C7.87671 8.09375 7.82983 7.74219 7.57202 7.55469L6.3064 6.59375Z" fill="#A8A8A8"/>
</svg>
